<mxfile host="app.diagrams.net" modified="2023-03-28T16:01:12.938Z" agent="Mozilla/5.0 (Windows NT 10.0; Win64; x64) AppleWebKit/537.36 (KHTML, like Gecko) Chrome/111.0.0.0 Safari/537.36" etag="QeZyzJm1rDxJshMIEUJP" version="21.1.1" type="device">
  <diagram name="Page-1" id="56x4fZLVaNLY2IcL3MFe">
    <mxGraphModel dx="880" dy="484" grid="1" gridSize="10" guides="1" tooltips="1" connect="1" arrows="1" fold="1" page="1" pageScale="1" pageWidth="850" pageHeight="1100" math="0" shadow="0">
      <root>
        <mxCell id="0" />
        <mxCell id="1" parent="0" />
        <mxCell id="BHlk1-G4pOVoz3RQIgzK-7" style="edgeStyle=orthogonalEdgeStyle;rounded=0;orthogonalLoop=1;jettySize=auto;html=1;exitX=1;exitY=0.5;exitDx=0;exitDy=0;exitPerimeter=0;entryX=0;entryY=0.5;entryDx=0;entryDy=0;" parent="1" source="BHlk1-G4pOVoz3RQIgzK-1" target="BHlk1-G4pOVoz3RQIgzK-4" edge="1">
          <mxGeometry relative="1" as="geometry" />
        </mxCell>
        <mxCell id="BHlk1-G4pOVoz3RQIgzK-1" value="" style="verticalLabelPosition=bottom;html=1;verticalAlign=top;align=center;strokeColor=none;fillColor=#00BEF2;shape=mxgraph.azure.mobile;pointerEvents=1;" parent="1" vertex="1">
          <mxGeometry x="182.5" y="145" width="35" height="50" as="geometry" />
        </mxCell>
        <mxCell id="BHlk1-G4pOVoz3RQIgzK-33" style="edgeStyle=orthogonalEdgeStyle;rounded=0;orthogonalLoop=1;jettySize=auto;html=1;entryX=0;entryY=0.5;entryDx=0;entryDy=0;" parent="1" source="BHlk1-G4pOVoz3RQIgzK-3" target="BHlk1-G4pOVoz3RQIgzK-12" edge="1">
          <mxGeometry relative="1" as="geometry" />
        </mxCell>
        <mxCell id="BHlk1-G4pOVoz3RQIgzK-34" style="edgeStyle=orthogonalEdgeStyle;rounded=0;orthogonalLoop=1;jettySize=auto;html=1;entryX=0;entryY=0.5;entryDx=0;entryDy=0;" parent="1" source="BHlk1-G4pOVoz3RQIgzK-3" target="BHlk1-G4pOVoz3RQIgzK-13" edge="1">
          <mxGeometry relative="1" as="geometry" />
        </mxCell>
        <mxCell id="BHlk1-G4pOVoz3RQIgzK-3" value="" style="image;sketch=0;aspect=fixed;html=1;points=[];align=center;fontSize=12;image=img/lib/mscae/CustomDomain.svg;" parent="1" vertex="1">
          <mxGeometry x="175" y="475" width="50" height="42" as="geometry" />
        </mxCell>
        <mxCell id="BHlk1-G4pOVoz3RQIgzK-14" style="edgeStyle=orthogonalEdgeStyle;rounded=0;orthogonalLoop=1;jettySize=auto;html=1;" parent="1" source="BHlk1-G4pOVoz3RQIgzK-4" target="BHlk1-G4pOVoz3RQIgzK-10" edge="1">
          <mxGeometry relative="1" as="geometry" />
        </mxCell>
        <mxCell id="BHlk1-G4pOVoz3RQIgzK-4" value="Location Ingester Service" style="rounded=1;whiteSpace=wrap;html=1;" parent="1" vertex="1">
          <mxGeometry x="362.5" y="140" width="121" height="60" as="geometry" />
        </mxCell>
        <mxCell id="BHlk1-G4pOVoz3RQIgzK-5" value="gRPC" style="rounded=0;whiteSpace=wrap;html=1;" parent="1" vertex="1">
          <mxGeometry x="252.5" y="160" width="40" height="20" as="geometry" />
        </mxCell>
        <mxCell id="BHlk1-G4pOVoz3RQIgzK-16" style="edgeStyle=orthogonalEdgeStyle;rounded=0;orthogonalLoop=1;jettySize=auto;html=1;entryX=0.5;entryY=0;entryDx=0;entryDy=0;exitX=0.5;exitY=1;exitDx=0;exitDy=0;" parent="1" source="BHlk1-G4pOVoz3RQIgzK-9" target="BHlk1-G4pOVoz3RQIgzK-11" edge="1">
          <mxGeometry relative="1" as="geometry">
            <Array as="points">
              <mxPoint x="422.5" y="365" />
              <mxPoint x="611.5" y="365" />
            </Array>
          </mxGeometry>
        </mxCell>
        <mxCell id="BHlk1-G4pOVoz3RQIgzK-38" style="edgeStyle=orthogonalEdgeStyle;rounded=0;orthogonalLoop=1;jettySize=auto;html=1;" parent="1" source="BHlk1-G4pOVoz3RQIgzK-9" target="BHlk1-G4pOVoz3RQIgzK-10" edge="1">
          <mxGeometry relative="1" as="geometry" />
        </mxCell>
        <mxCell id="BHlk1-G4pOVoz3RQIgzK-9" value="Location Services" style="rounded=1;whiteSpace=wrap;html=1;" parent="1" vertex="1">
          <mxGeometry x="362.5" y="275" width="120" height="60" as="geometry" />
        </mxCell>
        <mxCell id="BHlk1-G4pOVoz3RQIgzK-10" value="" style="shape=image;verticalLabelPosition=bottom;labelBackgroundColor=default;verticalAlign=top;aspect=fixed;imageAspect=0;image=data:image/png,iVBORw0KGgoAAAANSUhEUgAAAT4AAACfCAMAAABX0UX9AAAAilBMVEX///8jHyAAAAAbFhcfGxz29vYTDA7BwMFdWlvt7OwKAAA1MjMQCQsyLi+6uboNAgaKiIljYGBAPj6pqKkXERPw8PAdGBrl5eXT0tIuKiuwr68nIyTKycmDgYJOS0ylpKSRkJCdnJzd3Nx6eHlRTk9wbm9JRkc8OTrY19dubG2Yl5dYVlZ3dXWHhobpWkuDAAAQXklEQVR4nO1daXuiOhQWCFAVwQWQzaWoqK39/3/vupCTk5CAdKY6vfI+z3wYpBBekpz90Ot16NChQ4cOHTp06NChw/Ng5pntuvbBfPZAfiHMbFeMQstzjHh6tINnD+eXISl0PyTaBST09eGqm4L3IysGoYZBvNh99qB+DRLD0ESEzkc3Ae/CWicV9s7Qjx1/d2DtyMg7wzt1/DUi0RXsneff+tmD++cRadKVe4PVyY8GbH1El+85noXoDIfd8q2Fy5Yu8cLNLJmNYyRJ9PdnD/CfhvkGKksYf9xsDdPds4NF/8kj/KeRD4AoI4Kj8yms6IH9xNH981hYdOXGB3S4P6VGiPH2tLH9AmwpTYMVdxy2RJI+aWS/AfMhoZNPELF7Kj6Mg/xPO/R6GSh4a+GXFTVFOtVPDZuKWEckKaPCw5k9ZWS/Ai4lKRQFbJRS+lbSv+zQQ/T5Ffq0jr5GwOL1EuGXjO59jvhLB8CBLlH/KPzyZanmZQdAAPqJLxhnBBSX/DlD+xUAk9facMc/qDFHRk8a2a/ACmxeH4sIG3wu1uJpY/sFmINvhXhMwbNToM/LlH/buQKRz0DT9KV92QD72YQ5/IyJjKQgWn+Guq47+407f/SI/ykcUKTDcIrJbrL0kf9Zl8hd82PrO8aVYeLr+81LG8Ubj5GlhYZv4Hi5Nan+wSzmQupnBjcvPAP722qIHNgcVrSW+cSphJas9IXdCpE8SH5duhVa8qksKEy8Fw6JZH4ooeRMil6x1w66YqrqX88Y+b8BN5WREpKKq2q+Vy70KtWvg8N+IC5g4sRVje/TklJ3PV+LJBd+EZgfMS8RfG1RzZBccfseCbk1bxRPGPc/g/zL8MD551gTiTIXMFtECx1nuJz6DlIRX92z5S5uZPinRJqbO2YaorecXa2R7OQBpeH+xa24/s0C0eW7WL+AxWpsgClbg6MyC+WVUE8f+J81fYwPw5L2d48Z5r+Kevo2VOwKboQEXIPT186HqadvRGeZxWs0JrP6Xlh36TXRR10z4VT4IaHTcvBU09ecH6KnOn9q6ZtT+ir+54hOS08d0zTnFH9zwGxws91yOoy1t9u20qc3e2h1Ty194BgciPod6IPWWPaHV9h6idEP7I/RyR/4ISHE+LzSZy7p3R4ao66lL1LSZ95Dn0FX/l+nzxzrVHmn9NEA2OChCSZBSZ90B8kpfY7onMqp5HA+lJem9P2AdN5AtOup9PXtd6ucRLZkhzJ1GKPwi01fftU9yM75Mfo+GHvPoy+w34YGlaCWP9q6lccEb0so/LQBW1kdlfsx+uaIvafR917oBva4EEMfiiVtnxBR59doTtkjVdc+4MfoW4MhTjxdL55BX5IOqv5m4vm83HpnRhs2bpnWbEjiShQ/RV9/SUfu71eHUk95KH3BxpIHO8jgyPZAczaEs8iQrVJzwpLwawIeP0XfgQ4qXLKp/0j68gJHKnlYI6rD2EscUAoHHyULbgFzkhg1zPwUfRkVaDradx9IX66p45RnnqzrOs13lnCWFR9XbvI19dnxSno0xk/Rt6Lv3kIHH0dfPqxj78xfen6r72k1xkEMTx9YIT5QZ4/9FH0f5eQPl+jgw+ibj+rZu7AyG6kDwQj1Q/0p+sbli+XE1sPom/hyLjCQYAnVp3ub2hu1py84rL5Ou80XyFMp/hJ95txdb3anxdrut4g4rPhKaOKfVSd9oIiaa0TfLlSl086y/rYK+twZxTu39E13l+qe5fu+5enx4iYW5qvy3AT+m1CiSJGcf1i5dXrfgf79+TxucNG60HXncjNH1ye3KE4voecqldk85lRlb7pZ2Zk9Wyw9GYHO/jyYtS9dyN6kwTUkp+9dd0ro2AsWrGIL3YdY1tvFDM/KswfpLUx1+S8MlFyvsq2hLx8N6M32mJLszcJ7uOHEVwKH5dlqS3SHJYIVJ/TJAreayWLoi+v8mDnV3ZIMTk2ONSl9SUg5Gpzw82wrm62fJkxJIaOSvspA6ow2c0oHHhLEnrkwxB2JOJdoBC2K9FT05fj++ppbfSv+CUJ9QjXA/FPIcyHesDnCK6Mvg3s4OMj0LsujIfr4z+gzIUMiTJFHKdrLtF6nmPempIG+MZp8huhYdFFM/PzQCSPXdJcGS0kwnP3iDmkgoS+CrcN/Q69uo+jrMUj+iD4QkiRFCnYmze45j2jbKxroY0UJ0pp7VKWvWbwD1cy+4ouMOf/zJ/dl51bpm4PGaW0R/xuVDUS00p/2Lfq+4LLYYM80hZTUnHXT7LPZ7X2Z1rFmk1OSvmdGbuJmd0cuKvT1YSvyp2jurdVdUZjJTekLwxApVWdYKvrgsiREG00eq9hDd1PRh5PCZcsvGLEVKnpIW0OkzzzSNWpgMZjhrijGWUqlKfEd4SFL+qLpcrkFP0a8XS6XxUlOXwJLlIt+fGKhYVkkTbXQEQWJij5w9ahqN1jNR6VY+o/pO9LFZIxwaIAwpgx9+27n/fnB/ZjqHIElfVes71Gb2TL3sKvyHc10x18k0byfZ8nR4i1UBX1ztvUReWB3HjedcT8E+saQmcCF1t+Z69ja2kCS6Rb4kTB991gdLI2Emydz5IHTxmwbmp8I1joU9EHB7tnclotOcwJz3v/TADhPH8xrwl0YCTN9x2mS/SPyybekj9n1OpeEw/zUBuGTm1xcXaCgDwI86tQeJjz+uKSco29GB048btzMhqxuJwumz7SjjyUU81UWJoidcC9KwBzNPxV9wI2ybI2552vyB+4Dpi+DsIoQDgC3v19tfYe82q3oCyYQAOMzm1x4fklc22XTT0GfC3NXGd2GWfI36QsOoC4I2iYUFxNLspuwkFor+ibQ0mLLG5YQH3Rkj//FZs73Z98P0FdEbCsStMkEnlQaNIGt5H76nBXIKF/oJhVACxapCy2A5ftP7X3aCNRlzk1wAaWCxFIfEfiH7qePQEKsMRRSJ1jGk7wiBarp75C8cn/JT0heps4PKnOeBpJVAU86nPvpg5uFqfhGwCbV5f68jBLfrPcp0hp/Qu8DVCtdTWrlVJJoStC4Rgv6KKo1Ku+Si2GAzaWyOqB9leY8zupg9IlLt2fS5aIrcj1s3uNyxX308f3NrviCP1Q8WpO/D9m8A9nuaf6EzcvWU8XJAzlIusIRcWhPHyzeShdMKnil3pIL6Faiog85fKz2HpcgS2aJfXeXDSQ6qABIhQ2hkb68NX1kCX1qRAFB6VOqHU30cf6+qmJS6+8bpxd/3+D87y1p5+9bZjSKEab8jDDpXiHPL/zO4nVWYKzogu5A155S7SianPVoemmh6G+3cRiJ9zbbS8J5m8etvM3mit5W2HJNutRUwZn2omOQQOYrEWQvbVYdbhWiY9ggOpjqc7m6zuejzZSxjkM11jFq1gqR1dEDM0ooYqXvW7UdHf3W9M1Qly5+/57Rue7ItbasQW3uoUKXC6wRZEQGdqGOtHmySNuuaQJi+vpsRnDLdFc+aSivzQRNq53LYE154hVNSNVWzHU61Wvoy4d4ihGvWCRZlCWLrejfvb2m/aomztvAH6avl0Aq9xafA+k+oVRzSdobbRf6ggIClNi9E8CsFLt33S6xb559Yr/10LpEf7jEH4y/k2VwWSsLkBLYXLfBwpLqSbAZt/T3HegbJ15fco5GZC9rxhzUNQbX8fE5Lhf6WE6ogQbH3rissv/jex6XM2iEjveDgTdOVsedM62kjr7+sIk/Ynxo6vxJhHszrK47New8REMzYgex2FFFoczYndrSx1yFAxTqiJi/b10Z7hujpY6+uuYO5eNlPXPtV0kmhjPw/G/k990EHezMOER+gPcUagJ/Gc55aUlfrw/eJwttf6BS81vIGcERTZha+pqyS53r/aI3cT/008mHO1tMUVTgzuzSsrH7m2RGII9yOOLW74zLeWhLH5NV4Z6pKcxffNadseTL37BGUk9fb77ElRE8LPBUuHusCJ61xHKquVO41Z25zeX45+CxN9jWHenoFlBaMncLTgttTx/LXUDZNCZaoZa2pjpU9sXrtQ309cyNqg2ON2HrMXhnHgQyQpn1by0z6+nrZzMiZjPihNNu/NH29LXYLUfC1P8GfQH4TS1mnuLuZ8RJp5PF12ayJ0IichN95ykUy+o6HMFn/sH2WkVdR017+yp9LArhMKHNb8Uk9C3LZxGx79OH/CPIPTrm1l1o+JYPa+IuyUshqSoarQVrhlUVrbnjLauK4KrBVBIyOhhStfwC/zP8Pn0sqmsU7Ll2yn0rLOIW9J3ttAlX07asOlLgVqKIbVfTxgYPM4IQZry5oUJpN7Z0r/8WfWyTQZ6K/pvqK1eW3ZSgJiKor6gMlBWVYJXfVVGJ5vSCzQhGiCtXBQxrnrV2WGFdNIc+U1aCzpSbUWdVsDE9UsWQ3N8GG22laneuqX5hkNJnwn6Atr9eXgib9/WRp5GYXXpFi8x6kFUE9VI+67QSF4h+fpD29NVWk8NSq1aTU2u0rprcJ1cYXFQ1GoS3wyH+LkMw9gSfhTHYzq/JvLdroMjL2Lsd83n6yrvxPtKJczt6y12Gke0HggPO0S5/tjfKa/wd+u4pxl8rL52NhleM+Fh/Eg9LcEpjfz3VLeNqK5zZcvTJ9REyrbwGWurr8gIxdhqbx/JuKTfUYFkeHmrcQN03Z2CEl7uR69dNbzKTnpze3Ruplr5cGVeGqsa6Thr9EoI47wN4j02QLbbTUZqmo+nnuvxgMFwDO06k1w0UF+1LrnC5SL6aFMM4TePhcmfT9Ff5NWpQSx9Ech7WxyXIoyjKH9VLZH6IosMftUmpb4PDkgwF/QQEQNdFqIY+cCf5QqZX18Pqhnr6bJbbv0aHUXlG10Htyo48zjqfgj1lfMH8y9Kuf98VpvtVdo/cuFJpg/Jj9c+bShChPgjh9G4Z9f9DfvJR71L/KLH++yjj13Cc6WdhdL1LrwjWQr29lUoq1T74zrlcd/tX7px7GEr6NmtV/8lSHVh64b7NcidHSCpGRD5UFoG9btdwdc/6ihUR6Qr+9Jf9Jk+rLyZE0sAwUeXT/v/R8nsd+Wf3vQ6M1l+LeQ85bxzx9dPrfi2G+1aRVUx2x23Tt4qCceGVscMzd6PTy4rcHp8gXlx9XUF2bPpSVj9bFJeWL3p8TF76I4LsO23489o2M2Q99dwKXthIK6H4SiAriu++ElgH1Tcqoa6bDJ80st8AVpzgCCYu+Ja7L6SqcaC+zkoZ3hoS8F7ai1cPSCeufh0aMjZe1phtBhT1Vr9N3n3avRmQnmKI9B3ijr5GQKVexVWcwS8PbZv/uwBLtJI6AG0grNd1BzQCOukQobwRqoE145VN2iaAt0pITIb2aiR90sh+BaBfCYnxLGOp1HUJyx1yVomCVul8Cj6r1459NwE1GwnjMhncTFh+e1i8dt5KE1APSeIZm1kyG8co+CHpytkBg2uh6HuOhz8/Ue1A0YFHlCoDbZ3SdwcSVYmztFSzg4i1qjbEO3VL9w6M5YFyXdWfqAOPmaQ2JHTWHXt3IiuEmkrixZ3UaIGk0Gnp57U2ZNVNvVYws1MxCi3PMuLp0X7ol1n/JzDzzHZt+9BNvA4dOnTo0KFDhw4dOnR4Cv4DxI0TGFqB8SkAAAAASUVORK5CYII=;" parent="1" vertex="1">
          <mxGeometry x="572.5" y="215" width="78" height="39" as="geometry" />
        </mxCell>
        <mxCell id="BHlk1-G4pOVoz3RQIgzK-19" style="edgeStyle=orthogonalEdgeStyle;rounded=0;orthogonalLoop=1;jettySize=auto;html=1;entryX=1;entryY=0.5;entryDx=0;entryDy=0;" parent="1" source="BHlk1-G4pOVoz3RQIgzK-11" target="BHlk1-G4pOVoz3RQIgzK-12" edge="1">
          <mxGeometry relative="1" as="geometry" />
        </mxCell>
        <mxCell id="BHlk1-G4pOVoz3RQIgzK-21" style="edgeStyle=orthogonalEdgeStyle;rounded=0;orthogonalLoop=1;jettySize=auto;html=1;entryX=1;entryY=0.5;entryDx=0;entryDy=0;" parent="1" source="BHlk1-G4pOVoz3RQIgzK-11" target="BHlk1-G4pOVoz3RQIgzK-13" edge="1">
          <mxGeometry relative="1" as="geometry" />
        </mxCell>
        <mxCell id="BHlk1-G4pOVoz3RQIgzK-11" value="" style="shape=image;verticalLabelPosition=bottom;labelBackgroundColor=default;verticalAlign=top;aspect=fixed;imageAspect=0;image=https://cdn.icon-icons.com/icons2/2415/PNG/512/postgresql_plain_wordmark_logo_icon_146390.png;" parent="1" vertex="1">
          <mxGeometry x="585.5" y="470" width="52" height="52" as="geometry" />
        </mxCell>
        <mxCell id="BHlk1-G4pOVoz3RQIgzK-17" style="edgeStyle=orthogonalEdgeStyle;rounded=0;orthogonalLoop=1;jettySize=auto;html=1;exitX=1;exitY=0.5;exitDx=0;exitDy=0;entryX=0;entryY=0.5;entryDx=0;entryDy=0;" parent="1" source="BHlk1-G4pOVoz3RQIgzK-12" target="BHlk1-G4pOVoz3RQIgzK-11" edge="1">
          <mxGeometry relative="1" as="geometry" />
        </mxCell>
        <mxCell id="BHlk1-G4pOVoz3RQIgzK-12" value="Connection Service" style="rounded=1;whiteSpace=wrap;html=1;" parent="1" vertex="1">
          <mxGeometry x="362.5" y="405" width="120" height="60" as="geometry" />
        </mxCell>
        <mxCell id="BHlk1-G4pOVoz3RQIgzK-18" style="edgeStyle=orthogonalEdgeStyle;rounded=0;orthogonalLoop=1;jettySize=auto;html=1;entryX=0;entryY=0.5;entryDx=0;entryDy=0;" parent="1" source="BHlk1-G4pOVoz3RQIgzK-13" target="BHlk1-G4pOVoz3RQIgzK-11" edge="1">
          <mxGeometry relative="1" as="geometry" />
        </mxCell>
        <mxCell id="BHlk1-G4pOVoz3RQIgzK-13" value="Persons Service" style="rounded=1;whiteSpace=wrap;html=1;" parent="1" vertex="1">
          <mxGeometry x="362.5" y="535" width="120" height="60" as="geometry" />
        </mxCell>
        <mxCell id="BHlk1-G4pOVoz3RQIgzK-24" value="End User" style="text;html=1;strokeColor=none;fillColor=none;align=center;verticalAlign=middle;whiteSpace=wrap;rounded=0;fontSize=10;" parent="1" vertex="1">
          <mxGeometry x="170" y="190" width="60" height="30" as="geometry" />
        </mxCell>
        <mxCell id="BHlk1-G4pOVoz3RQIgzK-25" value="Frontend Service" style="text;html=1;strokeColor=none;fillColor=none;align=center;verticalAlign=middle;whiteSpace=wrap;rounded=0;fontSize=10;" parent="1" vertex="1">
          <mxGeometry x="170" y="515" width="60" height="30" as="geometry" />
        </mxCell>
        <mxCell id="BHlk1-G4pOVoz3RQIgzK-26" value="REST API" style="rounded=0;whiteSpace=wrap;html=1;fontSize=9;" parent="1" vertex="1">
          <mxGeometry x="242.5" y="488" width="42.5" height="16" as="geometry" />
        </mxCell>
        <mxCell id="BHlk1-G4pOVoz3RQIgzK-35" value="Produces" style="text;html=1;strokeColor=none;fillColor=none;align=center;verticalAlign=middle;whiteSpace=wrap;rounded=0;fontSize=10;" parent="1" vertex="1">
          <mxGeometry x="512.5" y="140" width="60" height="30" as="geometry" />
        </mxCell>
        <mxCell id="BHlk1-G4pOVoz3RQIgzK-37" value="Comsumes" style="text;html=1;strokeColor=none;fillColor=none;align=center;verticalAlign=middle;whiteSpace=wrap;rounded=0;fontSize=10;" parent="1" vertex="1">
          <mxGeometry x="512.5" y="275" width="60" height="30" as="geometry" />
        </mxCell>
        <mxCell id="BHlk1-G4pOVoz3RQIgzK-39" value="UdaConnect Architecture Diagram" style="text;html=1;strokeColor=none;fillColor=none;align=center;verticalAlign=middle;whiteSpace=wrap;rounded=0;fontSize=13;fontStyle=1" parent="1" vertex="1">
          <mxGeometry x="305" y="70" width="135" height="30" as="geometry" />
        </mxCell>
      </root>
    </mxGraphModel>
  </diagram>
</mxfile>
